<svg xmlns="http://www.w3.org/2000/svg" viewBox="0 0 64 64" role="img" aria-label="Netpro Africa">
  <defs>
    <radialGradient id="globe" cx="30%" cy="24%" r="72%">
      <stop offset="0%" stop-color="#ffffff"/>
      <stop offset="23%" stop-color="#bfe7ff"/>
      <stop offset="48%" stop-color="#4aa7e6"/>
      <stop offset="72%" stop-color="#1f7fc8"/>
      <stop offset="100%" stop-color="#173a5c"/>
    </radialGradient>
    <linearGradient id="leaf" x1="18" x2="48" y1="26" y2="58" gradientUnits="userSpaceOnUse">
      <stop offset="0%" stop-color="#9bd75a"/>
      <stop offset="100%" stop-color="#6fb43a"/>
    </linearGradient>
    <filter id="soft-shadow" x="-24%" y="-24%" width="148%" height="148%" color-interpolation-filters="sRGB">
      <feDropShadow dx="0" dy="4" stdDeviation="3" flood-color="#000000" flood-opacity=".28"/>
    </filter>
  </defs>
  <g filter="url(#soft-shadow)">
    <circle cx="29" cy="30" r="25" fill="#10263f"/>
    <circle cx="29" cy="30" r="22" fill="url(#globe)"/>
    <path fill="#ffffff" fill-opacity=".9" d="M16.5 14.5c5.7-5 14.8-5 20.3-.2 4.5 4 4.9 10.6.7 15.2-4.8 5.3-14 6.4-20.8 2.3-6.4-3.8-6.5-12.1-.2-17.3Z"/>
    <path fill="#ffffff" fill-opacity=".72" d="M12.4 30.1c3.2 11.7 18.9 18 31.1 10.4-5.8 8.2-19.1 10.5-28.1 4.6-5.8-3.8-8.1-9.7-6.7-16.2.8.6 2 1 3.7 1.2Z"/>
    <circle cx="29" cy="30" r="25" fill="none" stroke="#294763" stroke-width="4"/>
    <rect x="40" y="35" width="21" height="21" rx="6" fill="url(#leaf)" transform="rotate(-13 50.5 45.5)"/>
  </g>
</svg>
